<svg xmlns="http://www.w3.org/2000/svg" xmlns:xlink="http://www.w3.org/1999/xlink" width="264.866" height="151.487" viewBox="4010 3201.2 275.9 157.8" xmlns:v="https://vecta.io/nano"><style><![CDATA[.B{stroke:none}.C{fill:none}.D{stroke-linecap:round}.E{stroke-width:5.512}]]></style><path fill="#fff" d="M4010 3201.2h275.9V3359H4010z"/><defs><mask id="A" maskUnits="userSpaceOnUse" x="4020" y="3211.2" width="255.9" height="137.8"><path d="M4031.814 3349l-.313-.004-.306-.012-.305-.02-.303-.028-.31-.037-.302-.043-.304-.052-.304-.06-.297-.067-.3-.076-.293-.082-.295-.091-.294-.099-.285-.104-.288-.114-.284-.121-.277-.127-.278-.136-.272-.142-.271-.151-.26-.154-.264-.165-.253-.168-.255-.179-.245-.181-.243-.19-.237-.196-.23-.2-.229-.21-.22-.212-.218-.221-.207-.221-.206-.232-.197-.235-.189-.238-.187-.248-.179-.25-.173-.255-.165-.258-.159-.264-.15-.265-.146-.274-.138-.275-.13-.278-.123-.282-.116-.284-.108-.286-.101-.292-.093-.293-.087-.298-.077-.292-.071-.302-.063-.303-.054-.298-.047-.307-.038-.303-.031-.308-.023-.306-.015-.305-.007-.31-.001-.11v-114.173l.004-.309.012-.306.02-.305.028-.303.036-.31.044-.302.052-.304.06-.304.067-.297.076-.3.082-.293.091-.295.099-.294.104-.285.114-.288.12-.282.128-.278.136-.278.142-.271.151-.271.154-.26.165-.264.168-.253.179-.255.181-.245.19-.243.196-.237.2-.23.21-.229.213-.22.221-.217.221-.207.232-.206.235-.197.238-.189.248-.187.25-.179.255-.173.258-.165.264-.159.265-.15.273-.146.275-.138.278-.13.282-.123.285-.116.286-.108.292-.101.293-.093.298-.086.292-.077.302-.071.303-.063.298-.054.307-.047.303-.038.308-.031.306-.023.305-.015.31-.007h.11 232.279l.313.004.306.012.305.02.303.028.31.037.302.043.304.052.304.06.297.067.3.076.293.082.295.091.294.099.285.104.288.114.282.12.278.128.278.136.271.142.271.151.26.154.264.165.253.168.255.179.245.181.243.19.237.196.23.2.229.21.22.212.218.221.207.221.206.232.197.235.19.238.188.248.179.25.172.255.165.259.159.264.15.265.146.274.138.275.13.278.123.282.116.285.108.286.101.292.093.293.087.298.077.292.071.302.063.303.054.298.047.307.038.303.031.308.023.306.015.305.007.31v.108 114.171l-.004.313-.012.306-.02.305-.028.303-.037.31-.043.302-.052.304-.06.304-.067.297-.076.3-.082.293-.091.295-.099.294-.104.285-.114.288-.12.282-.128.278-.136.278-.142.272-.151.271-.154.26-.165.264-.168.253-.179.255-.181.245-.19.243-.196.237-.2.23-.21.229-.212.22-.221.218-.221.207-.232.206-.235.197-.238.189-.248.188-.25.179-.255.173-.258.165-.264.159-.265.15-.274.146-.275.138-.278.13-.282.123-.284.116-.286.108-.292.101-.293.093-.298.087-.292.077-.302.071-.303.063-.298.054-.307.047-.303.038-.308.031-.306.023-.305.015-.31.007h-.11z" fill="#fff" class="B"/><g fill="#000" class="B"><circle cx="4201.42" cy="3312.783" r="1.77"/><circle cx="4161.42" cy="3312.783" r="1.77"/><circle cx="4090.579" cy="3282.122" r="1.4"/><circle cx="4090.579" cy="3262.122" r="1.4"/><circle cx="4191.311" cy="3279.209" r="1.4"/><circle cx="4171.311" cy="3279.209" r="1.4"/><circle cx="4245.757" cy="3297.819" r="1.772"/><circle cx="4253.257" cy="3297.819" r="1.772"/><circle cx="4260.757" cy="3297.819" r="1.772"/><circle cx="4268.257" cy="3297.819" r="1.772"/><path d="M4255.001 3268.646a1.772 1.772 0 0 1 0-3.543h.077a1.772 1.772 0 0 1 0 3.543zm0-10a1.772 1.772 0 0 1 0-3.543h.077a1.772 1.772 0 0 1 0 3.543zm0-10a1.772 1.772 0 0 1 0-3.543h.077a1.772 1.772 0 0 1 0 3.543z"/><circle cx="4166.417" cy="3242.701" r="2"/><circle cx="4176.417" cy="3242.701" r="2"/><circle cx="4186.417" cy="3242.701" r="2"/><circle cx="4196.417" cy="3242.701" r="2"/><circle cx="4268.622" cy="3330.102" r="2.953"/><circle cx="4243.031" cy="3330.102" r="2.953"/><circle cx="4027.48" cy="3242.521" r="2"/><circle cx="4117.48" cy="3312.521" r="2"/><circle cx="4117.48" cy="3302.521" r="2"/><circle cx="4117.48" cy="3292.521" r="2"/><circle cx="4117.48" cy="3282.521" r="2"/><circle cx="4117.48" cy="3272.521" r="2"/><circle cx="4117.48" cy="3262.521" r="2"/><circle cx="4117.48" cy="3252.521" r="2"/><circle cx="4117.48" cy="3242.521" r="2"/><circle cx="4027.48" cy="3312.521" r="2"/><circle cx="4027.48" cy="3302.521" r="2"/><circle cx="4027.48" cy="3292.521" r="2"/><circle cx="4027.48" cy="3282.521" r="2"/><circle cx="4027.48" cy="3272.521" r="2"/><circle cx="4027.48" cy="3262.521" r="2"/><circle cx="4027.48" cy="3252.521" r="2"/><circle cx="4052.876" cy="3332.464" r="1.969"/><circle cx="4084.372" cy="3332.464" r="1.969"/><circle cx="4135.551" cy="3338.37" r="5.906"/><circle cx="4227.283" cy="3338.37" r="5.906"/></g></mask><mask id="B" maskUnits="userSpaceOnUse" x="4020" y="3211.2" width="255.9" height="137.8"><path d="M4031.814 3349l-.313-.004-.306-.012-.305-.02-.303-.028-.31-.037-.302-.043-.304-.052-.304-.06-.297-.067-.3-.076-.293-.082-.295-.091-.294-.099-.285-.104-.288-.114-.284-.121-.277-.127-.278-.136-.272-.142-.271-.151-.26-.154-.264-.165-.253-.168-.255-.179-.245-.181-.243-.19-.237-.196-.23-.2-.229-.21-.22-.212-.218-.221-.207-.221-.206-.232-.197-.235-.189-.238-.187-.248-.179-.25-.173-.255-.165-.258-.159-.264-.15-.265-.146-.274-.138-.275-.13-.278-.123-.282-.116-.284-.108-.286-.101-.292-.093-.293-.087-.298-.077-.292-.071-.302-.063-.303-.054-.298-.047-.307-.038-.303-.031-.308-.023-.306-.015-.305-.007-.31-.001-.11v-114.173l.004-.309.012-.306.02-.305.028-.303.036-.31.044-.302.052-.304.06-.304.067-.297.076-.3.082-.293.091-.295.099-.294.104-.285.114-.288.12-.282.128-.278.136-.278.142-.271.151-.271.154-.26.165-.264.168-.253.179-.255.181-.245.19-.243.196-.237.2-.23.21-.229.213-.22.221-.217.221-.207.232-.206.235-.197.238-.189.248-.187.25-.179.255-.173.258-.165.264-.159.265-.15.273-.146.275-.138.278-.13.282-.123.285-.116.286-.108.292-.101.293-.093.298-.086.292-.077.302-.071.303-.063.298-.054.307-.047.303-.038.308-.031.306-.023.305-.015.31-.007h.11 232.279l.313.004.306.012.305.02.303.028.31.037.302.043.304.052.304.06.297.067.3.076.293.082.295.091.294.099.285.104.288.114.282.12.278.128.278.136.271.142.271.151.26.154.264.165.253.168.255.179.245.181.243.19.237.196.23.2.229.21.22.212.218.221.207.221.206.232.197.235.19.238.188.248.179.25.172.255.165.259.159.264.15.265.146.274.138.275.13.278.123.282.116.285.108.286.101.292.093.293.087.298.077.292.071.302.063.303.054.298.047.307.038.303.031.308.023.306.015.305.007.31v.108 114.171l-.004.313-.012.306-.02.305-.028.303-.037.31-.043.302-.052.304-.06.304-.067.297-.076.3-.082.293-.091.295-.099.294-.104.285-.114.288-.12.282-.128.278-.136.278-.142.272-.151.271-.154.26-.165.264-.168.253-.179.255-.181.245-.19.243-.196.237-.2.23-.21.229-.212.22-.221.218-.221.207-.232.206-.235.197-.238.189-.248.188-.25.179-.255.173-.258.165-.264.159-.265.15-.274.146-.275.138-.278.13-.282.123-.284.116-.286.108-.292.101-.293.093-.298.087-.292.077-.302.071-.303.063-.298.054-.307.047-.303.038-.308.031-.306.023-.305.015-.31.007h-.11z" fill="#fff" class="B"/><g fill="#000" class="B"><path d="M4176.864 3314.68l-.062-.01-.056-.028-.044-.044-.028-.056-.01-.062v-3.401l.01-.062.028-.056.044-.044.056-.028.062-.01h3.175l.062.01.056.028.044.044.028.056.01.062v3.401l-.01.062-.028.056-.044.044-.056.028-.062.01zm5.931 0l-.062-.01-.056-.028-.044-.044-.028-.056-.01-.062v-3.401l.01-.062.028-.056.044-.044.056-.028.062-.01h3.175l.062.01.056.028.044.044.028.056.01.062v3.401l-.01.062-.028.056-.044.044-.056.028-.062.01zm-93.999-37.996l-.062-.01-.056-.028-.044-.044-.028-.056-.01-.062v-3.15l.01-.062.028-.056.044-.044.056-.028.062-.01h3.544l.062.01.056.028.044.044.028.056.01.062v3.15l-.01.062-.028.056-.044.044-.056.028-.062.01zm0-5.512l-.062-.01-.056-.028-.044-.044-.028-.056-.01-.062v-3.15l.01-.062.028-.056.044-.044.056-.028.062-.01h3.544l.062.01.056.028.044.044.028.056.01.062v3.15l-.01.062-.028.056-.044.044-.056.028-.062.01zm-8.952 21.335l-.062-.01-.056-.028-.044-.044-.028-.056-.01-.062v-6.3l.01-.062.028-.056.044-.044.056-.028.062-.01h2.756l.062.01.056.028.044.044.028.056.01.062v6.3l-.01.062-.028.056-.044.044-.056.028-.062.01zm-4.331 0l-.062-.01-.056-.028-.044-.044-.028-.056-.01-.062v-6.3l.01-.062.028-.056.044-.044.056-.028.062-.01h2.756l.062.01.056.028.044.044.028.056.01.062v6.3l-.01.062-.028.056-.044.044-.056.028-.062.01zm-4.33 0l-.062-.01-.056-.028-.044-.044-.028-.056-.01-.062v-6.3l.01-.062.028-.056.044-.044.056-.028.062-.01h2.756l.062.01.056.028.044.044.028.056.01.062v6.3l-.01.062-.028.056-.044.044-.056.028-.062.01zm-4.331 0l-.062-.01-.056-.028-.044-.044-.028-.056-.01-.062v-6.3l.01-.062.028-.056.044-.044.056-.028.062-.01h2.756l.062.01.056.028.044.044.028.056.01.062v6.3l-.01.062-.028.056-.044.044-.056.028-.062.01zm-4.331 0l-.062-.01-.056-.028-.044-.044-.028-.056-.01-.062v-6.3l.01-.062.028-.056.044-.044.056-.028.062-.01h2.756l.062.01.056.028.044.044.028.056.01.062v6.3l-.01.062-.028.056-.044.044-.056.028-.062.01zm-4.33 0l-.062-.01-.056-.028-.044-.044-.028-.056-.01-.062v-6.3l.01-.062.028-.056.044-.044.056-.028.062-.01h2.756l.062.01.056.028.044.044.028.056.01.062v6.3l-.01.062-.028.056-.044.044-.056.028-.062.01zm-4.331 0l-.062-.01-.056-.028-.044-.044-.028-.056-.01-.062v-6.3l.01-.062.028-.056.044-.044.056-.028.062-.01h2.756l.062.01.056.028.044.044.028.056.01.062v6.3l-.01.062-.028.056-.044.044-.056.028-.062.01zm-4.331 0l-.062-.01-.056-.028-.044-.044-.028-.056-.01-.062v-6.3l.01-.062.028-.056.044-.044.056-.028.062-.01h2.756l.062.01.056.028.044.044.028.056.01.062v6.3l-.01.062-.028.056-.044.044-.056.028-.062.01zm-4.331 0l-.062-.01-.056-.028-.044-.044-.028-.056-.01-.062v-6.3l.01-.062.028-.056.044-.044.056-.028.062-.01h2.756l.062.01.056.028.044.044.028.056.01.062v6.3l-.01.062-.028.056-.044.044-.056.028-.062.01zm-5.708 3.74l-.062-.01-.056-.028-.044-.044-.028-.056-.01-.062v-5.906l.01-.062.028-.056.044-.044.056-.028.062-.01h4.724l.062.01.056.028.044.044.028.056.01.062v5.906l-.01.062-.028.056-.044.044-.056.028-.062.01zm0 39.173l-.062-.01-.056-.028-.044-.044-.028-.056-.01-.062v-8.661l.01-.062.028-.056.044-.044.056-.028.062-.01h4.724l.062.01.056.028.044.044.028.056.01.062v8.661l-.01.062-.028.056-.044.044-.056.028-.062.01zm56.693-39.173l-.062-.01-.056-.028-.044-.044-.028-.056-.01-.062v-5.906l.01-.062.028-.056.044-.044.056-.028.062-.01h6.299l.062.01.056.028.044.044.028.056.01.062v5.906l-.01.062-.028.056-.044.044-.056.028-.062.01zm4.331 39.173l-.062-.01-.056-.028-.044-.044-.028-.056-.01-.062v-8.661l.01-.062.028-.056.044-.044.056-.028.062-.01h4.724l.062.01.056.028.044.044.028.056.01.062v8.661l-.01.062-.028.056-.044.044-.056.028-.062.01zm82.009-54.229l-.062-.01-.056-.028-.044-.044-.028-.056-.01-.062v-3.543l.01-.062.028-.056.044-.044.056-.028.062-.01h3.15l.062.01.056.028.044.044.028.056.01.062v3.543l-.01.062-.028.056-.044.044-.056.028-.062.01zm-5.512 0l-.062-.01-.056-.028-.044-.044-.028-.056-.01-.062v-3.543l.01-.062.028-.056.044-.044.056-.028.062-.01h3.15l.062.01.056.028.044.044.028.056.01.062v3.543l-.01.062-.028.056-.044.044-.056.028-.062.01z"/><circle cx="4201.42" cy="3312.783" r="3.9"/><circle cx="4161.42" cy="3312.783" r="3.9"/><circle cx="4090.578" cy="3282.123" r="3.9"/><circle cx="4090.578" cy="3262.123" r="3.9"/><circle cx="4191.311" cy="3279.208" r="3.9"/><circle cx="4171.311" cy="3279.208" r="3.9"/><path d="M4242.802 3296.639a2.956 2.956 0 0 1 5.912 0v2.362a2.956 2.956 0 0 1-5.912 0zm7.5 0a2.956 2.956 0 0 1 5.912 0v2.362a2.956 2.956 0 0 1-5.912 0zm7.5 0a2.956 2.956 0 0 1 5.912 0v2.362a2.956 2.956 0 0 1-5.912 0zm7.5 0a2.956 2.956 0 0 1 5.912 0v2.362a2.956 2.956 0 0 1-5.912 0zm-8.263-32.965a3.2 3.2 0 0 1 0 6.4h-4a3.2 3.2 0 0 1 0-6.4zm0-10a3.2 3.2 0 0 1 0 6.4h-4a3.2 3.2 0 0 1 0-6.4zm0-10a3.2 3.2 0 0 1 0 6.4h-4a3.2 3.2 0 0 1 0-6.4zm-93.922 2.527l-.062-.01-.056-.028-.044-.044-.028-.056-.01-.062v-6.6l.01-.062.028-.056.044-.044.056-.028.062-.01h6.6l.062.01.056.028.044.044.028.056.01.062v6.6l-.01.062-.028.056-.044.044-.056.028-.062.01z"/><circle cx="4176.417" cy="3242.701" r="3.5"/><circle cx="4186.417" cy="3242.701" r="3.5"/><circle cx="4196.417" cy="3242.701" r="3.5"/><circle cx="4268.621" cy="3330.102" r="4.337"/><circle cx="4243.031" cy="3330.102" r="4.337"/><circle cx="4027.48" cy="3242.522" r="3.8"/><circle cx="4117.48" cy="3312.522" r="3.8"/><circle cx="4117.48" cy="3302.522" r="3.8"/><circle cx="4117.48" cy="3292.522" r="3.8"/><circle cx="4117.48" cy="3282.522" r="3.8"/><circle cx="4117.48" cy="3272.522" r="3.8"/><circle cx="4117.48" cy="3262.522" r="3.8"/><circle cx="4117.48" cy="3252.522" r="3.8"/><circle cx="4117.48" cy="3242.522" r="3.8"/><circle cx="4027.48" cy="3312.522" r="3.8"/><circle cx="4027.48" cy="3302.522" r="3.8"/><circle cx="4027.48" cy="3292.522" r="3.8"/><circle cx="4027.48" cy="3282.522" r="3.8"/><circle cx="4027.48" cy="3272.522" r="3.8"/><circle cx="4027.48" cy="3262.522" r="3.8"/><circle cx="4027.48" cy="3252.522" r="3.8"/></g></mask><mask id="C" maskUnits="userSpaceOnUse" x="4020" y="3211.2" width="255.9" height="137.8"><path d="M4031.814 3349l-.313-.004-.306-.012-.305-.02-.303-.028-.31-.037-.302-.043-.304-.052-.304-.06-.297-.067-.3-.076-.293-.082-.295-.091-.294-.099-.285-.104-.288-.114-.284-.121-.277-.127-.278-.136-.272-.142-.271-.151-.26-.154-.264-.165-.253-.168-.255-.179-.245-.181-.243-.19-.237-.196-.23-.2-.229-.21-.22-.212-.218-.221-.207-.221-.206-.232-.197-.235-.189-.238-.187-.248-.179-.25-.173-.255-.165-.258-.159-.264-.15-.265-.146-.274-.138-.275-.13-.278-.123-.282-.116-.284-.108-.286-.101-.292-.093-.293-.087-.298-.077-.292-.071-.302-.063-.303-.054-.298-.047-.307-.038-.303-.031-.308-.023-.306-.015-.305-.007-.31-.001-.11v-114.173l.004-.309.012-.306.02-.305.028-.303.036-.31.044-.302.052-.304.06-.304.067-.297.076-.3.082-.293.091-.295.099-.294.104-.285.114-.288.12-.282.128-.278.136-.278.142-.271.151-.271.154-.26.165-.264.168-.253.179-.255.181-.245.19-.243.196-.237.2-.23.21-.229.213-.22.221-.217.221-.207.232-.206.235-.197.238-.189.248-.187.25-.179.255-.173.258-.165.264-.159.265-.15.273-.146.275-.138.278-.13.282-.123.285-.116.286-.108.292-.101.293-.093.298-.086.292-.077.302-.071.303-.063.298-.054.307-.047.303-.038.308-.031.306-.023.305-.015.31-.007h.11 232.279l.313.004.306.012.305.02.303.028.31.037.302.043.304.052.304.06.297.067.3.076.293.082.295.091.294.099.285.104.288.114.282.12.278.128.278.136.271.142.271.151.26.154.264.165.253.168.255.179.245.181.243.19.237.196.23.2.229.21.22.212.218.221.207.221.206.232.197.235.19.238.188.248.179.25.172.255.165.259.159.264.15.265.146.274.138.275.13.278.123.282.116.285.108.286.101.292.093.293.087.298.077.292.071.302.063.303.054.298.047.307.038.303.031.308.023.306.015.305.007.31v.108 114.171l-.004.313-.012.306-.02.305-.028.303-.037.31-.043.302-.052.304-.06.304-.067.297-.076.3-.082.293-.091.295-.099.294-.104.285-.114.288-.12.282-.128.278-.136.278-.142.272-.151.271-.154.26-.165.264-.168.253-.179.255-.181.245-.19.243-.196.237-.2.23-.21.229-.212.22-.221.218-.221.207-.232.206-.235.197-.238.189-.248.188-.25.179-.255.173-.258.165-.264.159-.265.15-.274.146-.275.138-.278.13-.282.123-.284.116-.286.108-.292.101-.293.093-.298.087-.292.077-.302.071-.303.063-.298.054-.307.047-.303.038-.308.031-.306.023-.305.015-.31.007h-.11z" fill="#fff" class="B"/><g fill="#000" class="B"><path d="M4176.864 3314.68l-.062-.01-.056-.028-.044-.044-.028-.056-.01-.062v-3.401l.01-.062.028-.056.044-.044.056-.028.062-.01h3.175l.062.01.056.028.044.044.028.056.01.062v3.401l-.01.062-.028.056-.044.044-.056.028-.062.01zm5.931 0l-.062-.01-.056-.028-.044-.044-.028-.056-.01-.062v-3.401l.01-.062.028-.056.044-.044.056-.028.062-.01h3.175l.062.01.056.028.044.044.028.056.01.062v3.401l-.01.062-.028.056-.044.044-.056.028-.062.01zm-93.999-37.996l-.062-.01-.056-.028-.044-.044-.028-.056-.01-.062v-3.15l.01-.062.028-.056.044-.044.056-.028.062-.01h3.544l.062.01.056.028.044.044.028.056.01.062v3.15l-.01.062-.028.056-.044.044-.056.028-.062.01zm0-5.512l-.062-.01-.056-.028-.044-.044-.028-.056-.01-.062v-3.15l.01-.062.028-.056.044-.044.056-.028.062-.01h3.544l.062.01.056.028.044.044.028.056.01.062v3.15l-.01.062-.028.056-.044.044-.056.028-.062.01zm-8.952 21.335l-.062-.01-.056-.028-.044-.044-.028-.056-.01-.062v-6.3l.01-.062.028-.056.044-.044.056-.028.062-.01h2.756l.062.01.056.028.044.044.028.056.01.062v6.3l-.01.062-.028.056-.044.044-.056.028-.062.01zm-4.331 0l-.062-.01-.056-.028-.044-.044-.028-.056-.01-.062v-6.3l.01-.062.028-.056.044-.044.056-.028.062-.01h2.756l.062.01.056.028.044.044.028.056.01.062v6.3l-.01.062-.028.056-.044.044-.056.028-.062.01zm-4.33 0l-.062-.01-.056-.028-.044-.044-.028-.056-.01-.062v-6.3l.01-.062.028-.056.044-.044.056-.028.062-.01h2.756l.062.01.056.028.044.044.028.056.01.062v6.3l-.01.062-.028.056-.044.044-.056.028-.062.01zm-4.331 0l-.062-.01-.056-.028-.044-.044-.028-.056-.01-.062v-6.3l.01-.062.028-.056.044-.044.056-.028.062-.01h2.756l.062.01.056.028.044.044.028.056.01.062v6.3l-.01.062-.028.056-.044.044-.056.028-.062.01zm-4.331 0l-.062-.01-.056-.028-.044-.044-.028-.056-.01-.062v-6.3l.01-.062.028-.056.044-.044.056-.028.062-.01h2.756l.062.01.056.028.044.044.028.056.01.062v6.3l-.01.062-.028.056-.044.044-.056.028-.062.01zm-4.33 0l-.062-.01-.056-.028-.044-.044-.028-.056-.01-.062v-6.3l.01-.062.028-.056.044-.044.056-.028.062-.01h2.756l.062.01.056.028.044.044.028.056.01.062v6.3l-.01.062-.028.056-.044.044-.056.028-.062.01zm-4.331 0l-.062-.01-.056-.028-.044-.044-.028-.056-.01-.062v-6.3l.01-.062.028-.056.044-.044.056-.028.062-.01h2.756l.062.01.056.028.044.044.028.056.01.062v6.3l-.01.062-.028.056-.044.044-.056.028-.062.01zm-4.331 0l-.062-.01-.056-.028-.044-.044-.028-.056-.01-.062v-6.3l.01-.062.028-.056.044-.044.056-.028.062-.01h2.756l.062.01.056.028.044.044.028.056.01.062v6.3l-.01.062-.028.056-.044.044-.056.028-.062.01zm-4.331 0l-.062-.01-.056-.028-.044-.044-.028-.056-.01-.062v-6.3l.01-.062.028-.056.044-.044.056-.028.062-.01h2.756l.062.01.056.028.044.044.028.056.01.062v6.3l-.01.062-.028.056-.044.044-.056.028-.062.01zm-5.708 3.74l-.062-.01-.056-.028-.044-.044-.028-.056-.01-.062v-5.906l.01-.062.028-.056.044-.044.056-.028.062-.01h4.724l.062.01.056.028.044.044.028.056.01.062v5.906l-.01.062-.028.056-.044.044-.056.028-.062.01zm0 39.173l-.062-.01-.056-.028-.044-.044-.028-.056-.01-.062v-8.661l.01-.062.028-.056.044-.044.056-.028.062-.01h4.724l.062.01.056.028.044.044.028.056.01.062v8.661l-.01.062-.028.056-.044.044-.056.028-.062.01zm56.693-39.173l-.062-.01-.056-.028-.044-.044-.028-.056-.01-.062v-5.906l.01-.062.028-.056.044-.044.056-.028.062-.01h6.299l.062.01.056.028.044.044.028.056.01.062v5.906l-.01.062-.028.056-.044.044-.056.028-.062.01zm4.331 39.173l-.062-.01-.056-.028-.044-.044-.028-.056-.01-.062v-8.661l.01-.062.028-.056.044-.044.056-.028.062-.01h4.724l.062.01.056.028.044.044.028.056.01.062v8.661l-.01.062-.028.056-.044.044-.056.028-.062.01zm82.009-54.229l-.062-.01-.056-.028-.044-.044-.028-.056-.01-.062v-3.543l.01-.062.028-.056.044-.044.056-.028.062-.01h3.15l.062.01.056.028.044.044.028.056.01.062v3.543l-.01.062-.028.056-.044.044-.056.028-.062.01zm-5.512 0l-.062-.01-.056-.028-.044-.044-.028-.056-.01-.062v-3.543l.01-.062.028-.056.044-.044.056-.028.062-.01h3.15l.062.01.056.028.044.044.028.056.01.062v3.543l-.01.062-.028.056-.044.044-.056.028-.062.01z"/><circle cx="4201.42" cy="3312.783" r="3.9"/><circle cx="4161.42" cy="3312.783" r="3.9"/><circle cx="4090.578" cy="3282.123" r="3.9"/><circle cx="4090.578" cy="3262.123" r="3.9"/><circle cx="4191.311" cy="3279.208" r="3.9"/><circle cx="4171.311" cy="3279.208" r="3.9"/><path d="M4242.802 3296.639a2.956 2.956 0 0 1 5.912 0v2.362a2.956 2.956 0 0 1-5.912 0zm7.5 0a2.956 2.956 0 0 1 5.912 0v2.362a2.956 2.956 0 0 1-5.912 0zm7.5 0a2.956 2.956 0 0 1 5.912 0v2.362a2.956 2.956 0 0 1-5.912 0zm7.5 0a2.956 2.956 0 0 1 5.912 0v2.362a2.956 2.956 0 0 1-5.912 0zm-8.263-32.965a3.2 3.2 0 0 1 0 6.4h-4a3.2 3.2 0 0 1 0-6.4zm0-10a3.2 3.2 0 0 1 0 6.4h-4a3.2 3.2 0 0 1 0-6.4zm0-10a3.2 3.2 0 0 1 0 6.4h-4a3.2 3.2 0 0 1 0-6.4zm-93.922 2.527l-.062-.01-.056-.028-.044-.044-.028-.056-.01-.062v-6.6l.01-.062.028-.056.044-.044.056-.028.062-.01h6.6l.062.01.056.028.044.044.028.056.01.062v6.6l-.01.062-.028.056-.044.044-.056.028-.062.01z"/><circle cx="4176.417" cy="3242.701" r="3.5"/><circle cx="4186.417" cy="3242.701" r="3.5"/><circle cx="4196.417" cy="3242.701" r="3.5"/><circle cx="4268.621" cy="3330.102" r="4.337"/><circle cx="4243.031" cy="3330.102" r="4.337"/><circle cx="4027.48" cy="3242.522" r="3.8"/><circle cx="4117.48" cy="3312.522" r="3.8"/><circle cx="4117.48" cy="3302.522" r="3.8"/><circle cx="4117.48" cy="3292.522" r="3.8"/><circle cx="4117.48" cy="3282.522" r="3.8"/><circle cx="4117.48" cy="3272.522" r="3.8"/><circle cx="4117.48" cy="3262.522" r="3.8"/><circle cx="4117.48" cy="3252.522" r="3.8"/><circle cx="4117.48" cy="3242.522" r="3.8"/><circle cx="4027.48" cy="3312.522" r="3.8"/><circle cx="4027.48" cy="3302.522" r="3.8"/><circle cx="4027.48" cy="3292.522" r="3.8"/><circle cx="4027.48" cy="3282.522" r="3.8"/><circle cx="4027.48" cy="3272.522" r="3.8"/><circle cx="4027.48" cy="3262.522" r="3.8"/><circle cx="4027.48" cy="3252.522" r="3.8"/></g></mask><path id="D" d="M4079.844 3286.007h2.756v6.299h-2.756z"/></defs><g mask="url(#A)"><path d="M4031.814 3349l-.313-.004-.306-.012-.305-.02-.303-.028-.31-.037-.302-.043-.304-.052-.304-.06-.297-.067-.3-.076-.293-.082-.295-.091-.294-.099-.285-.104-.288-.114-.284-.121-.277-.127-.278-.136-.272-.142-.271-.151-.26-.154-.264-.165-.253-.168-.255-.179-.245-.181-.243-.19-.237-.196-.23-.2-.229-.21-.22-.212-.218-.221-.207-.221-.206-.232-.197-.235-.189-.238-.187-.248-.179-.25-.173-.255-.165-.258-.159-.264-.15-.265-.146-.274-.138-.275-.13-.278-.123-.282-.116-.284-.108-.286-.101-.292-.093-.293-.087-.298-.077-.292-.071-.302-.063-.303-.054-.298-.047-.307-.038-.303-.031-.308-.023-.306-.015-.305-.007-.31-.001-.11v-114.173l.004-.309.012-.306.02-.305.028-.303.036-.31.044-.302.052-.304.06-.304.067-.297.076-.3.082-.293.091-.295.099-.294.104-.285.114-.288.12-.282.128-.278.136-.278.142-.271.151-.271.154-.26.165-.264.168-.253.179-.255.181-.245.19-.243.196-.237.2-.23.21-.229.213-.22.221-.217.221-.207.232-.206.235-.197.238-.189.248-.187.25-.179.255-.173.258-.165.264-.159.265-.15.273-.146.275-.138.278-.13.282-.123.285-.116.286-.108.292-.101.293-.093.298-.086.292-.077.302-.071.303-.063.298-.054.307-.047.303-.038.308-.031.306-.023.305-.015.31-.007h.11 232.279l.313.004.306.012.305.02.303.028.31.037.302.043.304.052.304.06.297.067.3.076.293.082.295.091.294.099.285.104.288.114.282.12.278.128.278.136.271.142.271.151.26.154.264.165.253.168.255.179.245.181.243.19.237.196.23.2.229.21.22.212.218.221.207.221.206.232.197.235.19.238.188.248.179.25.172.255.165.259.159.264.15.265.146.274.138.275.13.278.123.282.116.285.108.286.101.292.093.293.087.298.077.292.071.302.063.303.054.298.047.307.038.303.031.308.023.306.015.305.007.31v.108 114.171l-.004.313-.012.306-.02.305-.028.303-.037.31-.043.302-.052.304-.06.304-.067.297-.076.3-.082.293-.091.295-.099.294-.104.285-.114.288-.12.282-.128.278-.136.278-.142.272-.151.271-.154.26-.165.264-.168.253-.179.255-.181.245-.19.243-.196.237-.2.23-.21.229-.212.22-.221.218-.221.207-.232.206-.235.197-.238.189-.248.188-.25.179-.255.173-.258.165-.264.159-.265.15-.274.146-.275.138-.278.13-.282.123-.284.116-.286.108-.292.101-.293.093-.298.087-.292.077-.302.071-.303.063-.298.054-.307.047-.303.038-.308.031-.306.023-.305.015-.31.007h-.11z" fill="#80785f"/><path d="M4031.814 3349l-.313-.004-.306-.012-.305-.02-.303-.028-.31-.037-.302-.043-.304-.052-.304-.06-.297-.067-.3-.076-.293-.082-.295-.091-.294-.099-.285-.104-.288-.114-.284-.121-.277-.127-.278-.136-.272-.142-.271-.151-.26-.154-.264-.165-.253-.168-.255-.179-.245-.181-.243-.19-.237-.196-.23-.2-.229-.21-.22-.212-.218-.221-.207-.221-.206-.232-.197-.235-.189-.238-.187-.248-.179-.25-.173-.255-.165-.258-.159-.264-.15-.265-.146-.274-.138-.275-.13-.278-.123-.282-.116-.284-.108-.286-.101-.292-.093-.293-.087-.298-.077-.292-.071-.302-.063-.303-.054-.298-.047-.307-.038-.303-.031-.308-.023-.306-.015-.305-.007-.31-.001-.11v-114.173l.004-.309.012-.306.02-.305.028-.303.036-.31.044-.302.052-.304.06-.304.067-.297.076-.3.082-.293.091-.295.099-.294.104-.285.114-.288.12-.282.128-.278.136-.278.142-.271.151-.271.154-.26.165-.264.168-.253.179-.255.181-.245.19-.243.196-.237.2-.23.21-.229.213-.22.221-.217.221-.207.232-.206.235-.197.238-.189.248-.187.25-.179.255-.173.258-.165.264-.159.265-.15.273-.146.275-.138.278-.13.282-.123.285-.116.286-.108.292-.101.293-.093.298-.086.292-.077.302-.071.303-.063.298-.054.307-.047.303-.038.308-.031.306-.023.305-.015.31-.007h.11 232.279l.313.004.306.012.305.02.303.028.31.037.302.043.304.052.304.06.297.067.3.076.293.082.295.091.294.099.285.104.288.114.282.12.278.128.278.136.271.142.271.151.26.154.264.165.253.168.255.179.245.181.243.19.237.196.23.2.229.21.22.212.218.221.207.221.206.232.197.235.19.238.188.248.179.25.172.255.165.259.159.264.15.265.146.274.138.275.13.278.123.282.116.285.108.286.101.292.093.293.087.298.077.292.071.302.063.303.054.298.047.307.038.303.031.308.023.306.015.305.007.31v.108 114.171l-.004.313-.012.306-.02.305-.028.303-.037.31-.043.302-.052.304-.06.304-.067.297-.076.3-.082.293-.091.295-.099.294-.104.285-.114.288-.12.282-.128.278-.136.278-.142.272-.151.271-.154.26-.165.264-.168.253-.179.255-.181.245-.19.243-.196.237-.2.23-.21.229-.212.22-.221.218-.221.207-.232.206-.235.197-.238.189-.248.188-.25.179-.255.173-.258.165-.264.159-.265.15-.274.146-.275.138-.278.13-.282.123-.284.116-.286.108-.292.101-.293.093-.298.087-.292.077-.302.071-.303.063-.298.054-.307.047-.303.038-.308.031-.306.023-.305.015-.31.007h-.11z" mask="url(#B)" fill="#002966"/><g fill="#dcaa14" stroke="#dcaa14"><path d="M4180.039 3311.079v3.402h-3.175v-3.402zm2.756 0v3.402h3.175v-3.402zm-90.455-37.745v3.15h-3.543v-3.15zm0-5.512v3.15h-3.543v-3.15z" class="B"/><use xlink:href="#D" class="B"/><use xlink:href="#D" x="-4.331" class="B"/><use xlink:href="#D" x="-8.661" class="B"/><use xlink:href="#D" x="-12.992" class="B"/><use xlink:href="#D" x="-17.323" class="B"/><use xlink:href="#D" x="-21.653" class="B"/><use xlink:href="#D" x="-25.984" class="B"/><use xlink:href="#D" x="-30.315" class="B"/><use xlink:href="#D" x="-34.646" class="B"/><path d="M4039.49 3290.141h4.724v5.906h-4.724zm0 36.418h4.724v8.661h-4.724zm56.693-36.418h6.299v5.906h-6.299zm4.331 36.418h4.724v8.661h-4.724zm82.009-49.111h3.15v3.543h-3.15zm-5.512 0h3.15v3.543h-3.15z" class="B"/><circle cx="4201.42" cy="3312.783" r="3.7" class="B"/><circle cx="4161.42" cy="3312.783" r="3.7" class="B"/><circle cx="4090.578" cy="3282.123" r="3.5" class="B"/><circle cx="4090.578" cy="3262.123" r="3.5" class="B"/><circle cx="4191.311" cy="3279.208" r="3.5" class="B"/><circle cx="4171.311" cy="3279.208" r="3.5" class="B"/><path d="M4245.758 3296.639v2.362m7.5-2.362v2.362m7.5-2.362v2.362m7.5-2.362v2.362" class="E"/><path stroke-width="6" d="M4257.039 3266.874h-4m4-10h-4m4-10h-4"/><path d="M4163.117 3239.401h6.6v6.6h-6.6z" class="B"/><circle cx="4176.417" cy="3242.701" r="3.3" class="B"/><circle cx="4186.417" cy="3242.701" r="3.3" class="B"/><circle cx="4196.417" cy="3242.701" r="3.3" class="B"/><circle cx="4268.621" cy="3330.102" r="3.937" class="B"/><circle cx="4243.031" cy="3330.102" r="3.937" class="B"/><circle cx="4027.48" cy="3242.522" r="3.6" class="B"/><circle cx="4117.48" cy="3312.522" r="3.6" class="B"/><circle cx="4117.48" cy="3302.522" r="3.6" class="B"/><circle cx="4117.48" cy="3292.522" r="3.6" class="B"/><circle cx="4117.48" cy="3282.522" r="3.6" class="B"/><circle cx="4117.48" cy="3272.522" r="3.6" class="B"/><circle cx="4117.48" cy="3262.522" r="3.6" class="B"/><circle cx="4117.48" cy="3252.522" r="3.6" class="B"/><circle cx="4117.48" cy="3242.522" r="3.6" class="B"/><circle cx="4027.48" cy="3312.522" r="3.6" class="B"/><circle cx="4027.48" cy="3302.522" r="3.6" class="B"/><circle cx="4027.48" cy="3292.522" r="3.6" class="B"/><circle cx="4027.48" cy="3282.522" r="3.6" class="B"/><circle cx="4027.48" cy="3272.522" r="3.6" class="B"/><circle cx="4027.48" cy="3262.522" r="3.6" class="B"/><circle cx="4027.48" cy="3252.522" r="3.6" class="B"/></g><g mask="url(#C)" fill="#005cb6" stroke="#005cb6"><path d="M4180.039 3311.079v3.402h-3.175v-3.402zm2.756 0v3.402h3.175v-3.402zm-90.455-37.745v3.15h-3.543v-3.15zm0-5.512v3.15h-3.543v-3.15z" class="B"/><use xlink:href="#D" class="B"/><use xlink:href="#D" x="-4.331" class="B"/><use xlink:href="#D" x="-8.661" class="B"/><use xlink:href="#D" x="-12.992" class="B"/><use xlink:href="#D" x="-17.323" class="B"/><use xlink:href="#D" x="-21.653" class="B"/><use xlink:href="#D" x="-25.984" class="B"/><use xlink:href="#D" x="-30.315" class="B"/><use xlink:href="#D" x="-34.646" class="B"/><path d="M4039.49 3290.141h4.724v5.906h-4.724zm0 36.418h4.724v8.661h-4.724zm56.693-36.418h6.299v5.906h-6.299zm4.331 36.418h4.724v8.661h-4.724zm82.009-49.111h3.15v3.543h-3.15zm-5.512 0h3.15v3.543h-3.15z" class="B"/><circle cx="4201.42" cy="3312.783" r="3.7" class="B"/><circle cx="4161.42" cy="3312.783" r="3.7" class="B"/><circle cx="4090.578" cy="3282.123" r="3.5" class="B"/><circle cx="4090.578" cy="3262.123" r="3.5" class="B"/><circle cx="4191.311" cy="3279.208" r="3.5" class="B"/><circle cx="4171.311" cy="3279.208" r="3.5" class="B"/><path d="M4245.758 3296.639v2.362m7.5-2.362v2.362m7.5-2.362v2.362m7.5-2.362v2.362" class="E"/><path stroke-width="6" d="M4257.039 3266.874h-4m4-10h-4m4-10h-4"/><path d="M4163.117 3239.401h6.6v6.6h-6.6z" class="B"/><circle cx="4176.417" cy="3242.701" r="3.3" class="B"/><circle cx="4186.417" cy="3242.701" r="3.3" class="B"/><circle cx="4196.417" cy="3242.701" r="3.3" class="B"/><circle cx="4268.621" cy="3330.102" r="3.937" class="B"/><circle cx="4243.031" cy="3330.102" r="3.937" class="B"/><circle cx="4027.48" cy="3242.522" r="3.6" class="B"/><circle cx="4117.48" cy="3312.522" r="3.6" class="B"/><circle cx="4117.48" cy="3302.522" r="3.6" class="B"/><circle cx="4117.48" cy="3292.522" r="3.6" class="B"/><circle cx="4117.48" cy="3282.522" r="3.6" class="B"/><circle cx="4117.48" cy="3272.522" r="3.6" class="B"/><circle cx="4117.48" cy="3262.522" r="3.6" class="B"/><circle cx="4117.48" cy="3252.522" r="3.6" class="B"/><circle cx="4117.48" cy="3242.522" r="3.6" class="B"/><circle cx="4027.48" cy="3312.522" r="3.6" class="B"/><circle cx="4027.48" cy="3302.522" r="3.6" class="B"/><circle cx="4027.48" cy="3292.522" r="3.6" class="B"/><circle cx="4027.48" cy="3282.522" r="3.6" class="B"/><circle cx="4027.48" cy="3272.522" r="3.6" class="B"/><circle cx="4027.48" cy="3262.522" r="3.6" class="B"/><circle cx="4027.48" cy="3252.522" r="3.6" class="B"/></g><g fill="#fff" stroke="#fff"><path d="M4201.104 3216.271v6.01m0-6.01h3.72m-3.72 2.86h2.29m-2.29 3.15h3.72m5.9-5.16l-.57-.57-.86-.28h-1.15l-.86.28-.57.57v.58l.29.57.28.29.58.28 1.71.57.58.29.28.29.29.57v.86l-.57.57-.86.29h-1.15l-.86-.29-.57-.57m5.9-5.15v6.01m0-6.01h2.58l.85.28.29.29.29.57v.86l-.29.57-.29.29-.85.28h-2.58m10.19-1.71l-.28-.58-.58-.57-.57-.28h-1.15l-.57.28-.57.57-.29.58-.28.86v1.43l.28.86.29.57.57.57.57.29h1.15l.57-.29.58-.57.28-.57v-.86m-1.43 0h1.43m1.89 0h3.44v-.58l-.29-.57-.29-.28-.57-.29h-.86l-.57.29-.57.57-.29.86v.57l.29.86.57.57.57.29h.86l.57-.29.58-.57m1.89-5.15l.28.28.29-.28-.29-.29-.28.29m.28 2v4.01m5.62-4.01v4.58l-.29.86-.29.29-.57.28h-.86l-.57-.28m2.58-4.87l-.58-.57-.57-.29h-.86l-.57.29-.57.57-.29.86v.57l.29.86.57.57.57.29h.86l.57-.29.58-.57m1.89-1.43h3.43v-.58l-.29-.57-.28-.28-.57-.29h-.86l-.58.29-.57.57-.28.86v.57l.28.86.57.57.58.29h.86l.57-.29.57-.57m1.89-3.15v4.01m0-2.29l.29-.86.57-.57.57-.29h.86m6.3-2v6.01m0 0h3.44m3.32-4.01l-.57.29-.58.57-.28.86v.57l.28.86.58.57.57.29h.86l.57-.29.57-.57.29-.86v-.57l-.29-.86-.57-.57-.57-.29h-.86m7.61 0v4.58l-.28.86-.29.29-.57.28h-.86l-.57-.28m2.57-4.87l-.57-.57-.57-.29h-.86l-.57.29-.58.57-.28.86v.57l.28.86.58.57.57.29h.86l.57-.29.57-.57" stroke-width=".787" class="C"/><path d="M4234.348 3228.098l-.48.16-.32.49-.16.8v.49l.16.8.32.48.48.17h.33l.48-.17.32-.48.16-.8v-.49l-.16-.8-.32-.49-.48-.16h-.33m3.32 0l-.48.16-.32.49-.16.8v.49l.16.8.32.48.48.17h.32l.49-.17.32-.48.16-.8v-.49l-.16-.8-.32-.49-.49-.16h-.32m2.35.65l.33-.16.48-.49v3.39m3.54-2.74l.32-.16.49-.49v3.39m1.22-2.58v-.16l.16-.32.16-.17.33-.16h.64l.32.16.16.17.16.32v.32l-.16.32-.32.49-1.61 1.61h2.26m3.96-4.03l-2.9 5.15m4.12-3.7v-.16l.16-.32.16-.17.33-.16h.64l.32.16.16.17.16.32v.32l-.16.32-.32.49-1.61 1.61h2.26m2.02-3.39l-.48.16-.32.49-.16.8v.49l.16.8.32.48.48.17h.33l.48-.17.32-.48.16-.8v-.49l-.16-.8-.32-.49-.48-.16h-.33m2.52.81v-.16l.16-.32.16-.17.32-.16h.65l.32.16.16.17.16.32v.32l-.16.32-.32.49-1.61 1.61h2.25m1.39-3.39h1.77l-.97 1.29h.48l.33.16.16.16.16.49v.32l-.16.48-.32.32-.49.17h-.48l-.48-.17-.17-.16-.16-.32m4.686 41.786h2.86m-2.86 0v-1.23l.14-.41.13-.13.27-.14h.41l.28.14.13.13.14.41v1.23m-1.5-2.81h2.86m0 0v-1.64m-2.45-2.81l-.27.28-.14.41v.54l.14.41.27.27h.27l.27-.13.14-.14.14-.27.27-.82.14-.27.13-.14.27-.14h.41l.28.28.13.41v.54l-.13.41-.28.27m-2.45-5.859l2.86-1.09m-2.86-1.09l2.86 1.09m-2.18-4.04l-.28.14-.27.27-.13.27v.55l.13.27.27.27.28.14.41.14h.68l.41-.14.27-.14.27-.27.14-.27v-.55l-.14-.27-.27-.27-.27-.14m-1.5-2.94l-.28.13-.27.27-.13.28v.54l.13.28.27.27.28.13.41.14h.68l.41-.14.27-.13.27-.27.14-.28v-.54l-.14-.28-.27-.27-.27-.13m-1.505-5.999l-.27.14-.27.27-.14.27v.55l.14.27.27.28.27.13.41.14h.69l.4-.14.28-.13.27-.28.14-.27v-.55l-.14-.27-.27-.27-.28-.14h-.4m0 .68v-.68m-1.78-.9h2.87m-2.87 0l2.87-1.91m-2.87 0h2.87m-2.87-.9h2.87m-2.87 0v-.95l.14-.41.27-.27.27-.14.41-.14h.69l.4.14.28.14.27.27.14.41v.95m-91.567 75.63v4.29m0-4.29h1.84l.61.2.21.21.2.41v.41l-.2.41-.21.2-.61.2h-1.84m1.43 0l1.43 2.25m1.35-3.47l.41-.21.62-.61v4.29m-103.185-52.106l-.41.21-.41.41-.2.4v.82l.2.41.41.41.41.21.62.2h1.02l.61-.2.41-.21.41-.41.2-.41v-.82l-.2-.4-.41-.41-.41-.21m-2.45-1.35l-.21-.41-.61-.61h4.29m95.773 16.558l-.21-.41-.41-.41-.4-.2h-.82l-.41.2-.41.41-.21.41-.2.62v1.02l.2.61.21.41.41.41.41.2h.82l.4-.2.41-.41.21-.41m1.55-2.25v-.2l.21-.41.2-.21.41-.2h.82l.41.2.2.21.21.41v.41l-.21.41-.41.61-2.04 2.04h2.86m-6.811-41.087l-3.05 1.16m3.05 1.17l-3.05-1.17m2.33 4.31l.29-.15.29-.29.14-.29v-.58l-.14-.29-.29-.29-.29-.15-.44-.14h-.73l-.43.14-.29.15-.3.29-.14.29v.58l.14.29.3.29.29.15m1.6 3.14l.29-.15.29-.29.14-.29v-.58l-.14-.29-.29-.29-.29-.15-.44-.14h-.73l-.43.14-.29.15-.3.29-.14.29v.58l.14.29.3.29.29.15m-8.249-6.034l.29-.15.29-.29.15-.29v-.58l-.15-.29-.29-.29-.29-.15-.43-.14h-.73l-.44.14-.29.15-.29.29-.14.29v.58l.14.29.29.29.29.15h.44m0-.73v.73m1.89.96h-3.05m3.05 0l-3.05 2.03m3.05 0h-3.05m3.05.96h-3.05m3.05 0v1.02l-.15.44-.29.29-.29.14-.43.15h-.73l-.44-.15-.29-.14-.29-.29-.14-.44v-1.02m22.299-3.709l.29-.29.15-.43v-.58l-.15-.44-.29-.29h-.29l-.29.14-.15.15-.14.29-.29.87-.15.29-.14.15-.3.14h-.43l-.29-.29-.15-.43v-.58l.15-.44.29-.29m1.89 5.18l.29-.15.29-.29.15-.29v-.58l-.15-.29-.29-.29-.29-.15-.44-.15h-.72l-.44.15-.29.15-.29.29-.15.29v.58l.15.29.29.29.29.15m2.33.96h-3.06m0 0v1.74m12.853-6.236l.29-.29.15-.44v-.58l-.15-.44-.29-.29h-.29l-.29.15-.14.14-.15.29-.29.88-.15.29-.14.14-.29.15h-.44l-.29-.29-.14-.44v-.58l.14-.44.29-.29m2.62 3h-3.05m3.05 0v1.02l-.15.43-.29.29-.29.15-.43.14h-.73l-.44-.14-.29-.15-.29-.29-.14-.43v-1.02m3.05 4.16l-3.05-1.17m3.05 1.17l-3.05 1.16m1.01-1.89v1.45m-136.228 58.182v3.06m0-3.06h1.02l.43.15.3.29.14.29.15.43v.73l-.15.44-.14.29-.3.29-.43.15h-1.02m3-2.48l.29-.14.43-.44v3.06m5.44-2.04v2.04m0-1.46l.44-.44.29-.14h.44l.29.14.14.44v1.46m0-1.46l.44-.44.29-.14h.44l.29.14.14.44v1.46m.96-3.06l.15.15.14-.15-.14-.14-.15.14m.15 1.02v2.04m1.1-2.04v2.04m0-1.46l.44-.44.29-.14h.44l.29.14.14.44v1.46m.96-3.06l.15.15.15-.15-.15-.14-.15.14m.15 1.02v2.04m-41.564-76.273v2.87m0-2.87h1.23l.41.14.13.14.14.27v.27l-.14.27-.13.14-.41.14h-1.23m.95 0l.96 1.5m2.81-2.46l-.27-.27-.41-.14h-.55l-.41.14-.27.27v.28l.14.27.13.13.27.14.82.27.28.14.13.14.14.27v.41l-.27.27-.41.14h-.55l-.41-.14-.27-.27m3.76-2.46v2.87m-.95-2.87h1.91m-6.44 10l-1.09 2.87m1.09-2.87l1.09 2.87m-1.77-.96h1.36m2.13-1.91l-.41.14-.27.41-.14.68v.41l.14.68.27.41.41.14h.27l.41-.14.27-.41.14-.68v-.41l-.14-.68-.27-.41-.41-.14h-.27m-3.9 10v2.87m0-2.87h.95l.41.14.28.27.13.28.14.4v.69l-.14.41-.13.27-.28.27-.41.14h-.95m3.63-2.87l-.41.14-.27.41-.14.68v.41l.14.68.27.41.41.14h.27l.41-.14.27-.41.14-.68v-.41l-.14-.68-.27-.41-.41-.14h-.27m-3.63 10v2.87m0-2.87h.95l.41.14.28.27.13.28.14.4v.69l-.14.41-.13.27-.28.27-.41.14h-.95m4.45-2.87h-1.37l-.13 1.23.13-.14.41-.13h.41l.41.13.27.28.14.41v.27l-.14.41-.27.27-.41.14h-.41l-.41-.14-.13-.14-.14-.27m-2.81 7.68v2.87m0-2.87h.95l.41.14.28.27.13.28.14.4v.69l-.14.41-.13.27-.28.27-.41.14h-.95m4.45-2.46l-.14-.27-.41-.14h-.27l-.41.14-.27.41-.14.68v.68l.14.55.27.27.41.14h.13l.41-.14.28-.27.13-.41v-.14l-.13-.41-.28-.27-.41-.14h-.13l-.41.14-.27.27-.14.41m-2.81 8.09v2.87m0-2.87h.95l.41.14.28.27.13.28.14.4v.69l-.14.41-.13.27-.28.27-.41.14h-.95m4.72-2.87l-1.37 2.87m-.54-2.87h1.91m-4.72 10v2.87m0-2.87h.95l.41.14.28.27.13.28.14.4v.69l-.14.41-.13.27-.28.27-.41.14h-.95m3.49-2.87l-.41.14-.13.27v.28l.13.27.27.13.55.14.41.14.27.27.14.27v.41l-.14.27-.13.14-.41.14h-.55l-.41-.14-.13-.14-.14-.27v-.41l.14-.27.27-.27.41-.14.54-.14.28-.13.13-.27v-.28l-.13-.27-.41-.14h-.55m-3.22 10h1.5l-.82 1.09h.41l.28.14.13.14.14.41v.27l-.14.41-.27.27-.41.14h-.41l-.41-.14-.13-.14-.14-.27m2.81-2.32l1.09 2.87m1.09-2.87l-1.09 2.87m2.26-2.87h1.5l-.81 1.09h.4l.28.14.13.14.14.41v.27l-.14.41-.27.27-.41.14h-.41l-.41-.14-.13-.14-.14-.27m64.75-2.68h-1.37l-.13 1.23.13-.14.41-.13h.41l.41.13.27.28.14.41v.27l-.14.41-.27.27-.41.14h-.41l-.41-.14-.13-.14-.14-.27m2.81-2.32l1.09 2.87m1.09-2.87l-1.09 2.87m-4.85-12.18l-.14-.28-.27-.27-.28-.14h-.54l-.27.14-.28.27-.13.28-.14.4v.69l.14.41.13.27.28.27.27.14h.54l.28-.14.27-.27.14-.27v-.41m-.69 0h.69m.9-1.78v2.87m0-2.87l1.9 2.87m0-2.87v2.87m.9-2.87v2.87m0-2.87h.96l.41.14.27.27.14.28.13.4v.69l-.13.41-.14.27-.27.27-.41.14h-.96m-2.75-12.87v2.87m0-2.87h.95l.41.14.28.27.13.28.14.4v.69l-.14.41-.13.27-.28.27-.41.14h-.95m4.17-2.87l-1.36 1.91h2.04m-.68-1.91v2.87m-4.17-12.87v2.87m0-2.87h.95l.41.14.28.27.13.28.14.4v.69l-.14.41-.13.27-.28.27-.41.14h-.95m3.08-2.87h1.5l-.82 1.09h.41l.28.14.13.14.14.41v.27l-.14.41-.27.27-.41.14h-.41l-.41-.14-.13-.14-.14-.27m-2.81-12.32v2.87m0-2.87h.95l.41.14.28.27.13.28.14.4v.69l-.14.41-.13.27-.28.27-.41.14h-.95m2.95-2.18v-.14l.13-.27.14-.14.27-.14h.55l.27.14.14.14.13.27v.27l-.13.27-.28.41-1.36 1.37h1.91m-3.72-12.87v2.87m0-2.87h.95l.41.14.28.27.13.28.14.4v.69l-.14.41-.13.27-.28.27-.41.14h-.95m2.81-2.32l.27-.14.41-.41v2.87m-4.49-12.87v2.87m0-2.87h1.23l.41.14.13.14.14.27v.27l-.14.27-.13.14-.41.14h-1.23m.95 0l.96 1.5m.9-2.87l1.91 2.87m0-2.87l-1.91 2.87m-1.86-12.87v2.87m-.95-2.87h1.91m.9 0l1.91 2.87m0-2.87l-1.91 2.87m-47.36-21.05l-1.45 3.82m1.45-3.82l1.46 3.82m-2.36-1.28h1.81m1.75-2.54v3.82m0-3.82l2.54 3.82m0-3.82v3.82m2.48-3.82v3.82m-1.28-3.82h2.55m1.2 0v3.82m0-3.82h2.36m-2.36 1.82h1.45m-1.45 2h2.36m1.2-3.82v3.82m0-3.82l2.55 3.82m0-3.82v3.82m1.2-3.82v3.82m0-3.82l2.54 3.82m0-3.82v3.82m2.66-3.82l-1.46 3.82m1.46-3.82l1.45 3.82m-2.36-1.28h1.82" stroke-width=".6" class="C"/><path stroke-width=".6" d="M4179.739 3310.179h-3.775v5.202h3.775m3.356-5.202h3.775v5.202h-3.775" class="C D"/><path d="M4193.82 3308.083v9.4m0 0h-24.8" class="C D"/><path d="M4169.02 3317.483v-9.4m0 0h24.8m-101.678-30.457h-3.15m4.37-4.37v3.149m-5.589-3.149v3.149m5.612-5.416v-3.15m-1.22-1.219h-3.149m-1.22 4.369v-3.15m-44.487 77.538h20.315m31.649-54.291h-11.763" class="C D"/><path d="M4043.309 3325.649v-28.692m0 48.42v-9.247m58.268 12.043l-11.85.039" class="C D"/><path d="M4101.577 3336.13v12.043l-.039.039m.039-51.102v28.539m-37.953 19.728h8.189m115.001-67.731v3.15m-4.369-4.37h3.149m-3.149 5.589h3.149m-5.416-5.612h-3.15m-1.219 1.22v3.149m4.369 1.22h-3.15m-90.386-1.996v-15.748h7.874v15.748h-7.874m102.543 3.15h-15.748v-7.874h15.748v7.874m76.174 18.092v4.932m0-16.703v4.932m-24.32-17.525v-40h24v40h-24" class="C D"/><path d="M4262.539 3269.874v-6h2.5v6h-2.5m0-20v-6h2.5v6h-2.5m-38.319 11.984v42.772m-85.606 0h85.606" class="C D"/><path d="M4138.614 3304.63v-42.772m0 0h85.606m-70.362 76.512h55.118m-55.118 7.874v-7.874m55.118 7.874v-7.874m0 7.874h26.181m0 0v-109.449m-107.48 109.449h26.181" class="C D"/><path d="M4127.677 3346.244v-109.449m0 .001h107.48m32.48 100.196h-23.622v-13.78h23.622v13.78" class="C D"/><path d="M4261.731 3333.055h-11.811v-5.906h11.811v5.906m-216.251-92.534h54v65h-54v-65m0 0v-28m54 28v-28" class="C D"/><path d="M4092.165 3266.62a1.22 1.22 0 0 1 1.22 1.22m-5.589-.001a1.22 1.22 0 0 1 1.22-1.22m4.346 9.787a1.22 1.22 0 0 1-1.22 1.22m-3.15 0a1.22 1.22 0 0 1-1.22-1.22m1.954 71.806a65.091 65.091 0 0 0-17.914-2.835m103.996-67.754a1.22 1.22 0 0 1 1.22-1.22m0 5.589a1.22 1.22 0 0 1-1.22-1.22m9.787-4.346a1.22 1.22 0 0 1 1.22 1.22m-.001 3.149a1.22 1.22 0 0 1-1.22 1.22m79.765 7.452a11.811 11.811 0 1 0 0 16.703" class="C"/><path d="M4188.11 3215.536l-.145.006-.108.008-.108.008-.034.007-.034.007-.078.008-.078.007-.06.011-.06.011-.058.012-.058.011-.054.011-.054.011-.052.011-.052.011-.037.008-.037.008-.011.005-.011.005-.037.009-.037.009-.045.012-.045.012-.034.008-.034.008-.007.007-.007.007h-.014-.014l-.024.01-.023.01-.064.023-.063.023-.019.005-.019.005-.007.006-.007.006-.026.006-.026.006-.011.006-.012.006-.03.012-.03.012-.022.01-.022.01-.041.016-.041.016-.019.008-.019.008-.022.01-.022.01-.105.05-.104.05-.056.028-.056.028-.062.035-.062.035h-.006-.006l-.01.01-.01.009-.039.018-.039.018v.005.005l-.013.005-.013.005-.02.013-.02.013-.036.021-.036.022-.086.057-.086.057-.004.004-.004.004-.03.018-.03.018-.009.008-.009.008-.011.009-.011.009h-.005-.005l-.035.028-.035.028-.019.017-.019.017h-.005-.005l-.01.009-.01.01-.067.052-.067.052-.004.004-.004.004-.02.016-.02.016-.058.051-.058.051-.066.063-.066.063v.021.021l.06.118.061.118.055.108.055.108v.009.009h.007.007l.005.02.005.021.005.004.005.004.095.189.096.188.133.263.133.263.03.06.03.06.028.06.028.06.006.004.006.004.005.021.005.02h.006.006l.005.021.005.02.005.004.005.004.097.192.097.192.007.017.007.017.064.127.064.127.163.321.163.321.146.291.146.291.006.003.006.003v.014.014l.01.01.01.01.006.018.006.018.005.004.005.004.119.239.119.239.014.02.014.02.024-.006.024-.006.022-.012.022-.012h.009.009v-.007-.007l.022-.005.022-.005v-.007-.007h.012.012l.02-.011.02-.011.049-.022.048-.021.045-.017.045-.017.013-.007.013-.007h.009.009l.02-.01.02-.01.025-.005.025-.005.007-.006.008-.006.026-.005.026-.005.015-.006.015-.006.034-.008.034-.008.045-.011.045-.011.052-.011.052-.011.06-.011.06-.011.056-.007.056-.007.03-.007.03-.008.19-.012.19-.012.09.008.09.008.108.007.108.007.06.008.06.008.037.007.037.007.041.008.041.008.048.01.049.01.037.008.037.008.013.007.013.007h.01.009l.052.016.052.016.015.006.015.006.049.016.048.016.024.011.024.011h.008.008l.013.007.013.007.026.011.026.011.034.014.034.014.026.01.025.01.084.042.084.042.014-.016.014-.016.06-.119.06-.119.164-.325.164-.325.136-.269.136-.269.203-.403.203-.403.126-.25.126-.25.005-.004.005-.004.006-.018.006-.018.01-.01.01-.01v-.014-.014l.006-.003.006-.003.12-.239.12-.239.24-.477.24-.477v-.009-.009l-.069-.067-.069-.067-.055-.048-.055-.048-.053-.041-.053-.041-.004-.005-.004-.004-.082-.063-.082-.063-.019-.017-.019-.017-.026-.016-.026-.016-.004-.004-.004-.004-.024-.017-.024-.017h-.005-.005l-.01-.009-.01-.009-.01-.008-.01-.008-.022-.015-.022-.015-.026-.014-.026-.014-.034-.023-.034-.023-.086-.052-.086-.052-.045-.024-.045-.024-.026-.014-.026-.014-.004-.004-.004-.004-.101-.049-.101-.049-.075-.035-.075-.035-.015-.006-.015-.006-.037-.016-.037-.016-.015-.007-.015-.007-.035-.015-.035-.015h-.007-.007l-.021-.011-.021-.011-.027-.012-.027-.012h-.015-.015l-.004-.007-.004-.007-.027-.005-.027-.005-.012-.006-.012-.006-.048-.016-.048-.016-.011-.006-.012-.006-.026-.006-.026-.006-.011-.006-.011-.006-.034-.008-.034-.008-.037-.01-.037-.01-.034-.009-.034-.009-.013-.006-.013-.006-.032-.005-.032-.005-.008-.006-.008-.006-.037-.004-.037-.004-.019-.007-.019-.007-.045-.007-.045-.007-.06-.01-.06-.01-.019-.005-.019-.005-.056-.008-.056-.008-.09-.011-.09-.01-.063-.007-.064-.007-.086-.008-.086-.008-.175-.003-.175-.003-.146.006m.081 6.464l-.102.005-.036.008-.036.008-.041.008-.041.008-.045.011-.045.011-.034.009-.034.008-.007.007-.007.007h-.012-.012l-.021.011-.021.011h-.007-.007l-.035.016-.035.016-.046.021-.046.022-.087.052-.087.052-.072.055-.072.055-.078.077-.078.077-.015.019-.015.019-.055.069-.055.069-.036.058-.035.058-.05.101-.05.101-.006.015-.006.015-.023.069-.023.069-.008.032-.008.032-.011.045-.011.045-.011.071-.011.071-.008.094-.008.094.008.1.008.101.008.062.008.062.007.013.007.013.005.039.005.039.006.004.006.004.005.035.005.035.006.012.006.012.016.049.016.048.006.015.006.015.023.05.023.05.023.049.023.049.009.009.009.009.015.03.015.03.065.086.065.086.028.03.028.03.035.037.035.037.056.049.056.049.06.044.06.044.038.024.038.024h.008.008l.002.007.003.007.101.048.101.048.067.024.067.024.011.006.012.006.033.005.033.006.007.006.007.006.049.009.048.009.067.011.067.011.179.004.179.003.026-.008.026-.007.056-.007.056-.007.041-.009.041-.009.008-.006.007-.006.03-.005.03-.005.034-.011.033-.011.015-.006.015-.006.037-.013.037-.013.078-.038.078-.038.066-.04.066-.04.076-.058.076-.058.044-.041.044-.041.03-.03.03-.03.047-.052.046-.052v-.009-.009h.006.007l.035-.054.035-.054.014-.02.014-.02v-.008-.008h.006.006l.012-.024.012-.024.05-.097.049-.097v-.012-.012l.006-.007.006-.007.017-.056.017-.056.006-.012.006-.012.005-.037.005-.037.006-.008.006-.008.008-.059.008-.059.007-.049.007-.048v-.172-.172l-.007-.041-.008-.041-.007-.051-.007-.051-.005-.008-.005-.008-.01-.042-.01-.042-.008-.032-.008-.032-.007-.013-.007-.013-.017-.045-.016-.045-.033-.068-.033-.068v-.004-.004l-.046-.077-.046-.077-.052-.071-.053-.071-.03-.034-.03-.034-.052-.052-.052-.052-.034-.03-.034-.03-.074-.056-.074-.056-.015-.009-.015-.009-.011-.006-.011-.005-.045-.027-.045-.027-.026-.013-.026-.013-.057-.027-.057-.027h-.009-.009l-.013-.007-.013-.007-.08-.026-.08-.026h-.017-.017l-.007-.007-.007-.007-.056-.008-.056-.008-.037-.007-.037-.007-.108-.003-.108-.003-.102.005m3.078 1.643l-.009.009v.065.065l-.007.036-.007.036-.008.086-.008.086-.011.06-.011.06-.011.056-.011.056-.011.045-.011.045-.008.034-.008.034-.024.075-.024.075-.01.023-.01.024v.015.015l-.007.005-.007.005v.013.013l-.014.03-.015.03v.013.013l-.007.004-.007.004-.005.021-.005.021-.034.071-.034.071-.023.048-.023.049-.004.004-.004.004-.029.06-.029.06-.004.004-.004.004-.044.073-.044.073-.008.014-.008.014-.022.033-.022.032-.006.008-.006.007-.039.052-.038.052-.005.004-.005.004-.018.026-.018.026-.011.012-.011.012-.03.037-.03.037-.026.03-.026.03-.116.116-.116.116-.063.052-.063.052-.013.013-.013.013h-.004-.004l-.036.027-.035.027-.002.007-.003.007h-.006-.007l-.051.037-.051.037-.007.006-.007.006-.046.03-.046.03v.016.016l.021.032.021.032.083.127.083.127.008.009.008.009v.006.006l.047.071.047.071.089.134.089.134.017.027.017.027.009.017.009.017h.005.005l.005.019.005.019h.007.007v.007.007l.091.137.091.137.081.123.081.123.008.009.007.009v.006.006l.011.015.011.015.118.179.118.179.071.108.071.108.02.034.02.034.041.06.041.06.007.011.007.011.036.056.036.056.068.104.068.105.008.009.008.009v.006.006l.011.014.011.015.039.06.039.06.005.004.005.004.018.03.018.03.006.008.006.007.067.103.067.103v.004.004l.017.024.017.024.006.003.006.003v.007.007l.017.024.017.024.005.004.005.004.005.017.005.017h.005.005l.018.034.018.034h.006.006v.007.007l.059.088.059.088.051.078.051.078.009.015.009.015.009.017.009.017h.006.006v.008.008l.017.024.017.024.005.004.005.004.005.017.005.017h.005.005l.018.034.018.034h.006.006v.008.008l.017.024.017.024.004.004.004.004.018.03.018.03.015.012.015.012.015-.006.015-.006.035-.005.035-.005.004-.007.004-.007h.016.016l.021-.011.021-.011h.012.012l.021-.011.021-.011h.012.012l.021-.011.021-.011h.007.007l.035-.015.035-.016.024-.011.024-.011h.011.012l.005-.007.005-.007h.011.011l.035-.015.035-.015.019-.008.019-.008.021-.01.021-.011h.008.008l.054-.026.054-.026h.008.008v-.008-.008h.011.011l.069-.036.069-.036.048-.026.048-.026.059-.032.059-.032.049-.029.049-.029.011-.007.011-.007.021-.008.021-.008v-.007-.007h.008.008l.035-.024.035-.024.123-.083.123-.083.004-.004.004-.004.108-.081.108-.081.008-.009.007-.009.016-.011.016-.011.051-.045.051-.044.012-.011.012-.011.037-.03.037-.03.074-.071.074-.071.086-.086.086-.086.045-.052.045-.052.026-.03.026-.03.004-.004.004-.004.052-.06.052-.06.028-.037.028-.037.102-.139.102-.139.041-.066.041-.066.017-.025.017-.025v-.004-.004l.008-.009.008-.009.04-.063.04-.064.009-.022.009-.022.004-.004.004-.004.041-.082.041-.082.004-.004.004-.004.019-.037.019-.037.005-.004.005-.004.028-.06.028-.06.006-.015.007-.015.016-.037.016-.037.007-.015.007-.015.016-.037.016-.037.007-.015.007-.015.015-.035.015-.035v-.011-.011l.007-.004.007-.004.005-.028.005-.028.006-.007.006-.008.017-.056.017-.056.005-.007.005-.008.005-.025.005-.025.01-.02.01-.02v-.008-.008l.011-.021.011-.021v-.019-.019l.006-.006.006-.006.009-.042.009-.042.012-.045.012-.045.007-.034.007-.034.007-.015.007-.015.008-.041.008-.041.011-.056.01-.056.009-.041.008-.041.007-.026.007-.026.007-.052.007-.052.011-.086.011-.086.008-.09.008-.09.009-.075.009-.075v-.336-.336l-.009-.064-.009-.063-.008-.082-.008-.082-.011-.086-.011-.086-.007-.06-.007-.06-.004-.019-.004-.019-.011-.05-.011-.05-.011-.05-.011-.05-.008-.037-.008-.037-.008-.019-.008-.019-.006-.011-.006-.011-.018-.002-.018-.002-.06-.008-.06-.008-.175-.007-.175-.007-.213-.011-.213-.011-.022-.005-.022-.005-.157-.007-.157-.007-.179-.007-.179-.008-.071-.008-.071-.007-.119-.004-.119-.004-.075-.008-.075-.008-.175-.007-.175-.007-.149-.007-.149-.007-.078-.008-.078-.008-.179-.007-.179-.007-.19-.011-.19-.011-.03-.004-.03-.004-.179-.008-.179-.007-.202-.011-.201-.011-.086-.007-.086-.007-.041-.001h-.042l-.009.009m-6.062.066l-.108.005-.16.008-.16.008-.078.008-.078.008-.175.007-.175.007-.164.007-.164.007-.022.004-.022.004-.202.011-.201.011-.179.007-.179.007-.078.008-.078.008-.149.007-.149.007-.183.007-.183.007-.056.007-.056.007-.131.004-.131.004-.063.007-.063.007-.163.005-.163.005-.043.007-.043.007h-.078l-.078.001-.086.007-.086.007-.203.009-.203.009-.008.008-.008.008-.007.029-.008.029-.011.048-.011.048-.011.052-.011.052-.011.06-.011.06-.011.075-.011.075-.007.064-.007.063-.007.022-.007.022-.01.142-.01.142.001.317v.317l.008.125.009.125.005.008.005.008.01.087.01.087.011.075.011.075.011.063.011.063.008.048.008.048.007.023.007.023.007.037.007.037.012.045.012.045.008.037.008.037.007.007.007.007v.013.013l.011.036.011.036.016.056.016.056.006.011.006.011.028.09.028.09.006.007.006.007v.012.012l.011.021.011.021v.007.007l.015.035.015.035.007.015.007.015.016.037.016.037.007.015.007.015.016.037.016.037.011.026.011.026.006.015.006.015.029.06.029.06.004.004.004.004.032.063.032.063.031.06.031.06.006.003.006.003v.01.01l.01.01.01.01.024.039.024.039v.004.004l.017.024.017.024.006.003.006.003v.009.01l.021.029.021.029.029.049.029.048.006.003.006.003v.007.007l.128.169.128.169.034.041.034.041.011.012.011.012.046.052.046.052.02.024.02.024.148.147.148.147.048.041.048.041.008.008.007.008.096.08.096.08.02.013.019.013.012.011.012.011.018.015.018.015.03.021.03.021.014.013.014.013.03.021.03.021.097.065.097.065.004.004.004.004.157.093.157.093.052.026.052.026.004.004.004.005.082.039.082.039.071.034.071.034.015.006.015.006.035.015.035.015h.008.008l.013.007.013.007.037.015.037.015.013.007.013.007h.009.009l.019.01.019.01.049.017.048.017.015.006.015.006.09.027.09.027.013.007.013.007.043.004.043.004.054-.082.054-.082v-.008-.008l.006-.003.006-.003.018-.03.018-.03.006-.008.006-.007.068-.104.068-.104.059-.09.059-.09.007-.011.007-.011.026-.04.026-.04v-.003-.003l.008-.009.008-.009.129-.195.129-.195.033-.052.033-.052.021-.032.021-.032v-.004-.004l.008-.009.008-.009.054-.081.054-.081.007-.012.008-.012.006-.008.006-.008.059-.09.058-.09.066-.101.065-.101.027-.041.027-.041.009-.01.009-.01v-.01-.01l.006-.003.006-.003.017-.024.017-.024v-.004-.004l.008-.009.008-.009.061-.094.061-.094.021-.032.02-.032v-.007-.007h.006.006l.021-.035.021-.035.009-.015.009-.014.006-.008.006-.008.039-.06.039-.06.004-.004.004-.004.017-.024.017-.024v-.004-.004l.008-.009.008-.009.036-.056.036-.056.046-.071.046-.071.008-.011.008-.011.026-.04.026-.04v-.003-.003l.008-.009.008-.009.061-.093.061-.093.005-.004.005-.004.027-.045.027-.045.057-.086.057-.086.007-.011.007-.011.026-.04.026-.04v-.006-.006l.006-.003.006-.002.039-.058.039-.058v-.007-.007l.006-.003.006-.002.017-.024.017-.024v-.004-.004l.008-.009.008-.009.032-.048.032-.048.012-.024.012-.024-.012-.011-.012-.011-.077-.05-.077-.05-.091-.069-.091-.069-.033-.029-.033-.029-.074-.071-.074-.071-.034-.034-.034-.034-.056-.06-.056-.06-.019-.022-.019-.022-.041-.052-.041-.052-.006-.007-.006-.008-.035-.05-.035-.05-.011-.016-.011-.016-.009-.01-.009-.01v-.004-.004l-.032-.047-.032-.047-.027-.045-.027-.045-.024-.045-.024-.045-.021-.039-.021-.039-.007-.013-.007-.013-.018-.041-.018-.041-.016-.037-.016-.037-.011-.021-.011-.021v-.008-.008l-.012-.027-.012-.027-.011-.021-.011-.021v-.009-.009l-.01-.02-.011-.02-.005-.024-.005-.025-.006-.011-.006-.011-.016-.056-.016-.056-.006-.022-.006-.022-.008-.037-.008-.037-.011-.045-.011-.045-.011-.06-.011-.06-.011-.067-.011-.067-.007-.06-.007-.06-.009-.093-.008-.093-.003-.017-.003-.017-.076.001-.076.001-.108.005" class="B"/></g></g></svg>